<?xml version="1.0" encoding="UTF-8"?>
<svg id="a" data-name="Layer 1" xmlns="http://www.w3.org/2000/svg" viewBox="0 0 1200 1200">
  <defs>
    <style>
      .b {
        fill: #009245;
      }

      .c {
        fill: #fff;
      }
    </style>
  </defs>
  <path class="b" d="m1177.5,600c-.65,103.32-5.49,201.75-21.22,281.85-15.75,80.67-42.41,143-87.05,187.36-44.36,44.64-106.7,71.31-187.37,87.06-80.1,15.74-178.53,20.58-281.85,21.23-103.32-.65-201.75-5.49-281.85-21.22-80.67-15.75-143-42.41-187.36-87.05-44.64-44.36-71.3-106.7-87.06-187.37-15.74-80.1-20.58-178.53-21.23-281.85.65-103.32,5.49-201.75,21.22-281.85,15.75-80.67,42.41-143,87.05-187.36,44.36-44.64,106.7-71.3,187.37-87.06,80.1-15.74,178.53-20.58,281.85-21.23,103.32.65,201.75,5.49,281.85,21.22,80.67,15.75,143,42.41,187.36,87.05,44.64,44.36,71.31,106.7,87.06,187.38,15.74,80.1,20.58,178.53,21.23,281.85Z"/>
  <g>
    <path class="c" d="m765.21,890.92c-15.54,15.49-30.83,30.98-46.41,46.17-11.76,11.47-25.75,14.8-41.11,8.57-23.37-9.49-29.32-41.43-10.93-60.1,30.99-31.46,62.45-62.48,93.73-93.66,31.87-31.76,63.8-63.47,95.58-95.32,1.7-1.7,2.31-4.48,3.42-6.76-2.71-.31-5.66-1.47-8.1-.8-59.72,16.32-114.88,42.12-164.52,79.31-2.16,1.62-4.51,3-7.62,5.05-8.31-22.67-14.08-45.2-15-68.65-2.75-70.42,33.33-117.39,91.87-150.76,44.05-25.11,92.25-37.68,141.46-47.05,64.2-12.22,129.16-16.29,194.38-17.14,17.11-.22,22.68,5.52,22.54,22.86-.64,77.08-6.53,153.67-24.29,228.89-10.11,42.81-24.46,84.16-49.19,121.18-43.64,65.32-105.14,89.25-181.48,70.32-31.9-7.91-61.32-21.66-89.13-38.98-1.62-1.01-3.28-1.97-5.2-3.12Z"/>
    <path class="c" d="m163.34,558.97c-11.8,0-21.52.77-31.08-.15-25.61-2.48-46.18-25.22-46.63-50.91-.22-12.69-.1-25.39-.04-38.08.14-28.41,22.22-50.82,50.7-51.57,36.79-.96,45.03,1.63,78.05,24.83,3.3-7.93,6.22-15.85,9.82-23.46,20.02-42.36,38.68-85.45,60.76-126.71,21.82-40.77,58.92-64.59,103.42-73.47,39.37-7.86,79.61-12.37,119.7-15.31,37.95-2.78,76.2-2.56,114.29-1.95,53.3.86,106.52,4.42,158.77,15.85,53.37,11.68,93.45,41.32,117.33,90.97,18.16,37.77,35.46,75.95,53.12,113.96.55,1.18.84,2.47,1.52,4.53-13.6,1.87-26.67,3.44-39.68,5.48-61.06,9.6-120.72,24.11-176.37,51.94-49,24.5-89.89,58.06-116.38,106.94-25.92,47.84-32.34,98.91-20.97,151.6,5.6,25.98,15.14,51.14,23.42,76.5,1.94,5.94,1.81,9.74-2.92,14.45-18.38,18.29-29.8,40.26-31.84,66.39-.59,7.52-5.36,6.18-9.89,6.18-91.19,0-182.37,0-273.56,0-3.52,0-7.04,0-11.51,0,0,12.94.13,25-.03,37.06-.34,26.75-13.99,45-39.45,52.69-3.1.94-6.48,1.33-9.73,1.34-24.59.11-49.19.15-73.78.04-24.61-.11-46.86-20.33-49.45-44.8-.38-3.56-.65-7.15-.65-10.73.01-85.54-.09-171.08.18-256.62.14-44.04,13.84-83.95,38.48-120.27,1.04-1.53,2.02-3.09,4.4-6.75Zm178.98,163.41c7.73,0,15.47,0,23.2,0,8.01,0,16.03.2,24.03-.07,22.18-.75,37.89-14.69,40.77-35.94,2.57-18.96-9.6-37.12-30.06-42.8-31.88-8.85-63.9-17.29-96.05-25.1-25-6.07-47.46,11.01-49.19,36.65-.55,8.23-.31,16.53-.08,24.79.72,26.59,16.73,42.22,43.47,42.47,14.64.13,29.28.02,43.91,0Z"/>
  </g>
</svg>