<?xml version="1.0" encoding="UTF-8"?>
<svg id="c" data-name="Artboard 3" xmlns="http://www.w3.org/2000/svg" viewBox="0 0 1920 1320" fill="currentColor">
  <g>
    <path d="m1350.6879882812,448.7278442383c-.4899902344,71.7463378906-2.8740234375,140.1019287109-12.4638671875,195.1516723633-9.6010742188,55.4829101562-26.4077148438,97.6597900391-56.0098876953,127.0505981445-29.3919677734,29.6030883789-71.5750732422,46.4161987305-127.0609130859,56.0200195312-55.0521240234,9.5927124023-123.4071044922,11.9760131836-195.1533203125,12.4656982422-71.7459716797-.489440918-140.1018066406-2.8733520508-195.1516113281-12.4635620117-55.4827880859-9.600769043-97.6597900391-26.4075317383-127.05078125-56.0095214844-29.6032714844-29.3922119141-46.4162597656-71.5754394531-56.0199584961-127.0611572266-9.5927124023-55.0523071289-11.9758911133-123.4072875977-12.4655761719-195.1537475586.4895629883-71.746307373,2.8735961914-140.1019592285,12.4636230469-195.1516723633,9.600769043-55.4827880859,26.407409668-97.6596679688,56.0095825195-127.0505065918,29.3920288086-29.6032562256,71.5751342773-46.4163360596,127.0609130859-56.0200195312,55.0523071289-9.5926361084,123.4075317383-11.9759063721,195.1538085938-12.4657897949,71.74609375.4897155762,140.1018066406,2.8736572266,195.1512451172,12.4637298584,55.4829101562,9.600769043,97.66015625,26.407623291,127.0509033203,56.0097198486,29.6029052734,29.3920898438,46.4161376953,71.5751953125,56.0198974609,127.0610351562,9.5922851562,55.0523071289,11.9760742188,123.4073486328,12.4659423828,195.153503418Z"/>
    <g>
      <path d="m1068.1421547997,641.0276550994c-10.1551180422,10.2514222629-20.1446762641,20.5042156404-30.3259109712,30.5583980576-7.6861675513,7.5903229948-16.8265374537,9.7973492508-26.8620808414,5.6694918217-15.2690916284-6.2806410555-19.154028186-27.4246990099-7.1385110052-39.7811165405,40.9661097759-43.9317569228,87.2900829186-84.0443883894,125.9330706885-129.5574173731-43.1370249161,5.4248821122-82.2569786963,30.4147797074-117.7728030209,55.3016317318-59.4416970138-163.059604861,158.798492066-187.9555838692,269.6630155152-187.7036978663,11.1802598546-.1490962757,14.8191377577,3.6515329591,14.7248532913,15.1270261058,3.1787520994,141.9241671873-44.0460559166,368.0027386073-228.2216336564,250.385684063Z" style="fill: #fff;"/>
      <path d="m674.8927204638,421.3128339297c-43.6300739397,4.436611848-54.2541979983-19.2345830667-50.7997774849-58.9993393234,2.8135132185-43.6388013346,57.0079602648-42.1184024097,84.1261957262-17.6964951655,53.3011554371-120.0014276047,51.3085689607-150.6605112717,191.8905876106-158.1532791892,154.5175333381-.7991896106,233.9448417001-22.1988167597,290.7781089824,147.8387689356-145.5931375854,13.3532062889-285.7020106277,92.2822362339-215.6048163164,259.7684424555,4.9745586579,10.9214450149-21.2393375203,20.0903659579-22.7124721973,53.5048927305-.3861198511,4.9781888789-3.5065323665,4.0918134786-6.4631702513,4.0920141295-62.1329210604.0036801142-124.1054037384-.0025986637-186.2582690237-.006086411,4.448189912,70.5385954722-25.832224692,59.7172310601-80.3536942113,60.3248854417-18.9585912243-.0158377899-33.9786522845-17.9208192387-32.7342949624-36.7550495665,6.8229760769-81.6914228664-20.7846755744-184.4975930244,28.1316021282-253.9187540373Zm116.9446898583,108.1570613214c10.2841247169-.0766258554,20.5790396483.1606272712,30.8578155233-.0452790807,30.242921362.5115804256,37.2617142305-44.3919894425,6.9953086636-52.1197381697-20.8314225161-5.8554008865-41.7476644043-11.442558951-62.756620453-16.6110588893-25.6408527135-5.6427454138-35.3135074261,18.7491350656-32.1904517877,40.6674329152.352140289,33.4424751953,33.5490254478,28.0941384791,57.0939480538,28.1086432245Z" style="fill: #fff;"/>
    </g>
  </g>
  <g id="d" data-name="&amp;lt;Group&amp;gt;">
    <path d="m34.5233129385,930.4485108075v-35.8572547336h172.8780153378v35.8572547336h-65.5942113899v169.6719272593h-41.6889395868v-169.6719272593H34.5233129385Z"/>
    <path d="m263.6632767705,941.8180435208v22.4491462604c10.4952044166-15.4519080019,26.8207877442-25.0727841218,48.3942997656-25.9464594474,3.4986191292,0,7.5796884756,0,10.7864295252,1.1662063764v44.0206993685c-6.9965852874-2.0411876443-13.4100673865-2.9148629699-18.949221189-2.9148629699-29.153200497,0-40.2315081018,21.8640841589-40.2315081018,42.8544929921v76.6731719658h-39.9396300222v-158.3023945459h39.9396300222Z"/>
    <path d="m335.9648072525,1020.8236282395c0-50.4354874099,29.7363036852-82.2116727972,77.5475002626-82.2116727972,16.6168084361,0,32.9430447348,3.7898442378,46.644990201,13.9931705747v-10.7870824963h39.6477519425v158.3023945459h-39.6477519425v-11.6620637641c-11.0783076048,9.9121012284-27.9869941206,14.8681518426-45.7706619042,14.8681518426-49.2686280624,0-78.4218285594-32.3599415466-78.4218285594-82.5028979057Zm125.0668187604,32.6511666551v-64.7198830932c-10.4952044166-10.7857765541-25.6545813678-14.8681518426-39.0653017254-14.8681518426-28.2782192291,0-45.4787838246,17.2005645954-45.4787838246,46.9368682806,0,29.1525475259,16.6174614072,47.2280933892,45.7706619042,47.2280933892,13.118842278,0,28.2782192291-3.7898442378,38.7734236458-14.576926734Z"/>
    <path d="m614.6633183133,1101.5778695517h-20.1160805365l-75.5063126183-159.7598260309h44.6044555278l41.9801646953,98.2460310162,42.272042775-98.2460310162h43.72947426l-76.9637441033,159.7598260309Z"/>
    <path d="m857.2126965607,1033.0681422207h-122.4425279279c4.3736003971,23.6140466946,20.6978777825,36.7322360015,46.6443372299,36.7322360015,18.3667709718,0,34.6923542994-6.9959323163,45.4794367957-20.1154275654l25.0714781796,21.2816339418c-14.2857016255,19.8242024568-37.3159921608,32.3599415466-73.4657779452,32.3599415466-52.7679001627,0-83.9616353329-32.3599415466-83.9616353329-82.5028979057s33.526147923-82.5028979057,81.9217536308-82.5028979057c54.2240257055,0,81.0441604786,34.3998232487,81.0441604786,83.0853481228,0,3.79115018-.2912251086,11.6620637641-.2912251086,11.6620637641Zm-122.1513028193-28.8613224174h83.3778791736c-2.3324127528-17.2005645954-14.8681518426-32.9436977059-41.9795117242-32.9436977059-20.1167335076,0-36.4423168351,10.203326337-41.3983674493,32.9436977059Z"/>
    <path d="m927.4658567164,880.3055544483v219.8148836184h-40.2308551307v-219.8148836184h40.2308551307Z"/>
    <path d="m1217.8251255991,1076.7976164807c-22.1566152096,19.2404462975-53.0591252712,27.4038909324-88.6251548963,27.4038909324-67.6347460631,0-109.9080947803-41.1058363986-109.9080947803-106.7007007596,0-65.8860894696,42.2733487172-106.9919258682,109.324338621-106.9919258682,35.2748045165,0,62.0962452318,11.3695327134,81.9204476886,29.4450785767l-25.9464594474,28.8613224174c-13.7019454662-12.2445139812-33.8173730316-19.8242024568-55.9739882412-19.8242024568-41.1058363986,0-67.0509899038,26.237684556-67.0509899038,68.509727331,0,43.4382491514,27.4038909324,69.0934834903,69.9671588159,69.0934834903,18.6566901382,0,35.8585606758-3.2073940207,48.9767499827-12.2445139812v-29.4450785767h-56.5564384583v-34.1085981401h93.8724306191v86.0015170349Z"/>
    <path d="m1286.9120793784,941.8180435208v22.4491462604c10.4958573877-15.4519080019,26.8201347731-25.0727841218,48.3942997656-25.9464594474,3.4986191292,0,7.5796884756,0,10.7870824963,1.1662063764v44.0206993685c-6.9972382585-2.0411876443-13.4107203576-2.9148629699-18.949221189-2.9148629699-29.1538534681,0-40.2321610729,21.8640841589-40.2321610729,42.8544929921v76.6731719658h-39.9396300222v-158.3023945459h39.9396300222Z"/>
    <path d="m1521.8876458902,1033.0681422207h-122.4425279279c4.3736003971,23.6140466946,20.6978777825,36.7322360015,46.6443372299,36.7322360015,18.3667709718,0,34.6923542994-6.9959323163,45.4794367957-20.1154275654l25.0714781796,21.2816339418c-14.2843956833,19.8242024568-37.3159921608,32.3599415466-73.4657779452,32.3599415466-52.7679001627,0-83.9616353329-32.3599415466-83.9616353329-82.5028979057s33.526147923-82.5028979057,81.9204476886-82.5028979057c54.2253316477,0,81.0454664207,34.3998232487,81.0454664207,83.0853481228,0,3.79115018-.2912251086,11.6620637641-.2912251086,11.6620637641Zm-122.1513028193-28.8613224174h83.3778791736c-2.3324127528-17.2005645954-14.8681518426-32.9436977059-41.9808176664-32.9436977059-20.1154275654,0-36.4410108929,10.203326337-41.3970615071,32.9436977059Z"/>
    <path d="m1706.1299701725,1033.0681422207h-122.4425279279c4.3722944549,23.6140466946,20.6978777825,36.7322360015,46.6443372299,36.7322360015,18.3667709718,0,34.6923542994-6.9959323163,45.4794367957-20.1154275654l25.0714781796,21.2816339418c-14.2843956833,19.8242024568-37.3159921608,32.3599415466-73.4657779452,32.3599415466-52.7665942205,0-83.9616353329-32.3599415466-83.9616353329-82.5028979057s33.526147923-82.5028979057,81.9204476886-82.5028979057c54.2253316477,0,81.0454664207,34.3998232487,81.0454664207,83.0853481228,0,3.79115018-.2912251086,11.6620637641-.2912251086,11.6620637641Zm-122.1513028193-28.8613224174h83.3778791736c-2.3324127528-17.2005645954-14.8681518426-32.9436977059-41.9808176664-32.9436977059-20.1154275654,0-36.4410108929,10.203326337-41.3970615071,32.9436977059Z"/>
    <path d="m1774.9256988433,941.8180435208v11.6620637641c14.8681518426-8.745894852,36.7335419437-15.1593769512,55.1003129155-15.1593769512,41.3970615071,0,55.9739882412,17.7830148125,55.9739882412,67.052295846v94.7474118869h-39.6484049136v-88.6264608385c0-27.9863411495-9.3296510113-37.3159921608-30.9025100616-37.3159921608-16.034358219,0-29.4450785767,5.5398067735-39.0646487543,12.537045032v113.4054079673h-39.9409359644v-158.3023945459h38.4821985372Z"/>
    <path d="m177.500475875,1245.3895295481h-8.6649264362l-37.9108488287-85.6893968513h18.5339315723l23.7093804745,57.0461667799,23.4684341403-57.0461667799h18.895024588l-38.0309955103,85.6893968513Z"/>
    <path d="m292.5592066559,1159.7001326968v14.6827080515h-45.2515498834v21.7831157431h37.7900491761v14.2008153831h-37.7900491761v19.4977169091h47.7792009937v14.6827080515h-64.5083204583v-84.8470641383h61.9806693479Z"/>
    <path d="m332.0365331425,1159.7001326968v84.8470641383h-17.3305058434v-84.8470641383h17.3305058434Zm17.9325451934-25.1537525376l-24.0698205192,19.7380102722h-9.2676187572l14.8035077042-21.1823823353,18.5339315723,1.4443720631Z"/>
    <path d="m352.3778887069,1201.9421388014c0-27.31900469,16.8492661461-43.927977473,44.2890704887-43.927977473,16.8492661461,0,29.0043230872,6.3795276022,37.1886627972,16.3686794199l-13.1181893069,11.1919245754c-4.9345025681-6.8601143284-12.7570962911-11.3133771992-23.589233793-11.3133771992-16.7284664934,0-27.0787113269,10.230751123-27.0787113269,27.6807506768,0,17.3311588145,10.3502448334,28.2827900268,27.0787113269,28.2827900268,10.8321375018,0,18.6547312249-4.4532628707,23.589233793-11.3133771992l13.1181893069,11.1932305176c-8.1843397099,9.8690051361-19.7380102722,16.1270801146-37.1886627972,16.1270801146-27.4398043426,0-44.2890704887-16.9694128277-44.2890704887-44.2897234598Z"/>
    <path d="m449.8658202813,1211.088957906v-51.3888252092h16.9694128276v47.2973083253c0,16.3673734777,6.1379282969,23.1073411246,19.6172106196,23.1073411246s19.7373573011-6.7399676469,19.7373573011-23.1073411246v-47.2973083253h16.9694128277v51.3888252092c0,23.2274878061-12.2758565938,35.1429043552-36.7067701288,35.1429043552-23.9496738376,0-36.5866234472-11.9154165491-36.5866234472-35.1429043552Z"/>
    <path d="m562.035153965,1159.7001326968v69.5623167368h45.0112565203v15.2847474015h-62.1014690006v-84.8470641383h17.0902124803Z"/>
    <path d="m618.001306553,1202.1837381067c0-25.8759385691,17.3305058434-44.1695767783,45.0112565203-44.1695767783,26.71696534,0,45.1307502307,17.5714521776,45.1307502307,44.1695767783,0,25.7544859454-17.4499995539,44.0481241545-45.1307502307,44.0481241545-26.71696534,0-45.0112565203-17.4513054961-45.0112565203-44.0481241545Zm72.451713834,0c0-16.4888261014-10.5911911676-28.2827900268-27.4404573137-28.2827900268-16.006933433,0-27.3203106322,11.0717778939-27.3203106322,28.2827900268,0,16.3673734777,10.5911911676,28.1613374031,27.3203106322,28.1613374031,16.1270801146,0,27.4404573137-11.0717778939,27.4404573137-28.1613374031Z"/>
    <path d="m722.2292057743,1238.4092685382l6.37822166-14.6827080515c9.5072591492,4.5734095523,18.8956775591,7.3407010547,29.0049760583,7.3407010547,9.5072591492,0,15.0444540384-3.3693308523,15.0444540384-10.1092984992-.1201466816-6.6185150231-6.1379282969-8.7850731177-17.9331981645-11.0717778939-18.6540782538-3.7310768392-31.2903748923-9.3871124677-31.2903748923-26.1162319322,0-15.404894083,10.5911911676-25.7557918876,31.8924142423-25.7557918876,12.8778959438,0,23.589233793,2.648450763,31.8924142423,6.6198209653l-6.9789550678,14.2008153831c-7.1017136337-3.0075848655-15.6464933883-5.4157422654-24.9134591745-5.4157422654-9.628711773,0-14.4424146884,3.9726761445-14.4424146884,9.2669657861,0,6.7399676469,7.7024470415,9.026672423,20.7004896669,11.675123186,16.7291194645,3.3693308523,28.763376753,8.6649264362,28.763376753,25.3940459007,0,17.4499995539-10.9516312123,26.4766719769-31.8924142423,26.4766719769-14.9230014146,0-24.5517131876-2.5269981393-36.2255304314-7.8225937231Z"/>
    <path d="m835.1200725184,1238.4092685382l6.3795276022-14.6827080515c9.5072591492,4.5734095523,18.8956775591,7.3407010547,29.0036701162,7.3407010547,9.5085650914,0,15.0444540384-3.3693308523,15.0444540384-10.1092984992-.1201466816-6.6185150231-6.1379282969-8.7850731177-17.9331981645-11.0717778939-18.6540782538-3.7310768392-31.2903748923-9.3871124677-31.2903748923-26.1162319322,0-15.404894083,10.5911911676-25.7557918876,31.8937201845-25.7557918876,12.8765900016,0,23.5879278508,2.648450763,31.8924142423,6.6198209653l-6.98026101,14.2008153831c-7.1017136337-3.0075848655-15.6451874461-5.4157422654-24.9121532323-5.4157422654-9.628711773,0-14.4437206306,3.9726761445-14.4437206306,9.2669657861,0,6.7399676469,7.7024470415,9.026672423,20.701795609,11.675123186,16.7291194645,3.3693308523,28.763376753,8.6649264362,28.763376753,25.3940459007,0,17.4499995539-10.9529371545,26.4766719769-31.8924142423,26.4766719769-14.9243073568,0-24.5517131876-2.5269981393-36.2268363736-7.8225937231Z"/>
    <path d="m919.9710544833,1211.088957906v-51.3888252092h16.9694128277v47.2973083253c0,16.3673734777,6.1379282969,23.1073411246,19.6165576485,23.1073411246,13.4799352938,0,19.7380102722-6.7399676469,19.7380102722-23.1073411246v-47.2973083253h16.9694128277v51.3888252092c0,23.2274878061-12.2758565938,35.1429043552-36.7074230999,35.1429043552-23.9483678954,0-36.5859704761-11.9154165491-36.5859704761-35.1429043552Z"/>
    <path d="m1010.7170594975,1238.4092685382l6.3795276022-14.6827080515c9.5072591492,4.5734095523,18.8956775591,7.3407010547,29.0036701162,7.3407010547,9.5085650914,0,15.0444540384-3.3693308523,15.0444540384-10.1092984992-.1201466816-6.6185150231-6.1379282969-8.7850731177-17.9331981645-11.0717778939-18.6540782538-3.7310768392-31.2903748923-9.3871124677-31.2903748923-26.1162319322,0-15.404894083,10.5911911676-25.7557918876,31.8937201845-25.7557918876,12.8765900016,0,23.5879278508,2.648450763,31.8924142423,6.6198209653l-6.98026101,14.2008153831c-7.1017136337-3.0075848655-15.6451874461-5.4157422654-24.9121532323-5.4157422654-9.628711773,0-14.4437206306,3.9726761445-14.4437206306,9.2669657861,0,6.7399676469,7.7024470415,9.026672423,20.701795609,11.675123186,16.7291194645,3.3693308523,28.763376753,8.6649264362,28.763376753,25.3940459007,0,17.4499995539-10.9529371545,26.4766719769-31.8924142423,26.4766719769-14.9243073568,0-24.5517131876-2.5269981393-36.2268363736-7.8225937231Z"/>
    <path d="m1090.0321525154,1174.5029874299v-14.8028547331h71.3671288445v14.8028547331h-27.0787113269v70.0442094052h-17.2097061908v-70.0442094052h-27.0787113269Z"/>
    <path d="m1240.8345210594,1159.7001326968v14.6827080515h-45.2522028545v21.7831157431h37.7900491761v14.2008153831h-37.7900491761v19.4977169091h47.7792009937v14.6827080515h-64.5083204583v-84.8470641383h61.981322319Z"/>
    <path d="m1338.3204937205,1244.5471968351h-8.424633073l-50.908238483-52.5942098513v52.5942098513h-16.8492661461v-84.8470641383h8.3044863915l51.0283851645,52.5929039091v-52.5929039091h16.8492661461v84.8470641383Z"/>
    <path d="m1355.6542644194,1174.5029874299v-14.8028547331h71.3671288445v14.8028547331h-27.0787113269v70.0442094052h-17.2097061908v-70.0442094052h-27.0787113269Z"/>
    <path d="m1449.2903195019,1228.4201167205l-7.2218603153,16.1270801146h-18.1721855854l40.0767539522-84.968516762h9.2669657861l40.1969006338,84.968516762h-18.2936382092l-7.2205543731-16.1270801146h-38.6323818891Zm33.0964929422-13.8403753384l-13.8403753384-32.1340135476-13.7202286569,32.1340135476h27.5606039953Zm12.8765900016-80.0333612229l-24.0698205192,19.7380102722h-9.2669657861l14.8028547331-21.1823823353,18.5339315723,1.4443720631Z"/>
    <path d="m1554.4813510889,1245.3895295481h-8.6649264362l-37.9101958576-85.6893968513h18.5339315723l23.7080745323,57.0461667799,23.4690871114-57.0461667799h18.8943716169l-38.0303425392,85.6893968513Z"/>
    <path d="m1669.5400818699,1159.7001326968v14.6827080515h-45.2522028545v21.7831157431h37.7900491761v14.2008153831h-37.7900491761v19.4977169091h47.7792009937v14.6827080515h-64.5070145161v-84.8470641383h61.9800163768Z"/>
    <path d="m1709.0174083565,1159.7001326968v84.8470641383h-17.3298528723v-84.8470641383h17.3298528723Z"/>
    <path d="m1728.1546852209,1238.4092685382l6.37822166-14.6827080515c9.5085650914,4.5734095523,18.8956775591,7.3407010547,29.0049760583,7.3407010547,9.5072591492,0,15.0431480962-3.3693308523,15.0431480962-10.1092984992-.1201466816-6.6185150231-6.1366223547-8.7850731177-17.9318922223-11.0717778939-18.6540782538-3.7310768392-31.2903748923-9.3871124677-31.2903748923-26.1162319322,0-15.404894083,10.5898852254-25.7557918876,31.8924142423-25.7557918876,12.8778959438,0,23.589233793,2.648450763,31.8924142423,6.6198209653l-6.98026101,14.2008153831c-7.1004076915-3.0075848655-15.6451874461-5.4157422654-24.9121532323-5.4157422654-9.628711773,0-14.4424146884,3.9726761445-14.4424146884,9.2669657861,0,6.7399676469,7.7024470415,9.026672423,20.7004896669,11.675123186,16.7291194645,3.3693308523,28.763376753,8.6649264362,28.763376753,25.3940459007,0,17.4499995539-10.9516312123,26.4766719769-31.8924142423,26.4766719769-14.9230014146,0-24.5517131876-2.5269981393-36.2255304314-7.8225937231Z"/>
  </g>
</svg>