<?xml version="1.0" encoding="UTF-8"?>
<svg id="a" data-name="Artboard 1" xmlns="http://www.w3.org/2000/svg" viewBox="0 0 1920 400" fill="currentColor">
  <path d="m514.8891253963,100.5244140625v-26.8134765625h129.275390625v26.8134765625h-49.0502929688v126.8779296875h-31.1743164062v-126.8779296875h-49.05078125Z"/>
  <path d="m686.2362933651,109.0263671875v16.787109375c7.8481445312-11.5546875,20.0561523438-18.7490234375,36.1884765625-19.40234375,2.6162109375,0,5.66796875,0,8.0659179688.8720703125v32.91796875c-5.2319335938-1.5263671875-10.0278320312-2.1796875-14.169921875-2.1796875-21.8002929688,0-30.0844726562,16.349609375-30.0844726562,32.0458984375v57.3349609375h-29.8662109375v-118.3759765625h29.8662109375Z"/>
  <path d="m740.3022113338,168.10546875c0-37.71484375,22.236328125-61.4765625,57.9887695312-61.4765625,12.42578125,0,24.6342773438,2.833984375,34.8803710938,10.4638671875v-8.06640625h29.6479492188v118.3759765625h-29.6479492188v-8.720703125c-8.2841796875,7.412109375-20.9282226562,11.1181640625-34.2265625,11.1181640625-36.8422851562,0-58.642578125-24.1982421875-58.642578125-61.6943359375Zm93.5229492188,24.416015625v-48.396484375c-7.8481445312-8.0654296875-19.1840820312-11.1181640625-29.2124023438-11.1181640625-21.1459960938,0-34.0083007812,12.8623046875-34.0083007812,35.0986328125,0,21.7998046875,12.4262695312,35.31640625,34.2265625,35.31640625,9.8100585938,0,21.1459960938-2.833984375,28.994140625-10.900390625Z"/>
  <path d="m948.7084613338,228.4921875h-15.0424804688l-56.4624023438-119.4658203125h33.3544921875l31.3920898438,73.466796875,31.6103515625-73.466796875h32.7001953125l-57.5522460938,119.4658203125Z"/>
  <path d="m1130.0829730526,177.26171875h-91.560546875c3.2705078125,17.658203125,15.4775390625,27.4677734375,34.8798828125,27.4677734375,13.734375,0,25.9423828125-5.2314453125,34.0087890625-15.0419921875l18.748046875,15.9140625c-10.6826171875,14.82421875-27.904296875,24.1982421875-54.9365234375,24.1982421875-39.458984375,0-62.78515625-24.1982421875-62.78515625-61.6943359375s25.0703125-61.6943359375,61.259765625-61.6943359375c40.5478515625,0,60.603515625,25.7236328125,60.603515625,62.1298828125,0,2.8349609375-.2177734375,8.720703125-.2177734375,8.720703125Zm-91.3427734375-21.58203125h62.3486328125c-1.744140625-12.8623046875-11.1181640625-24.634765625-31.3916015625-24.634765625-15.04296875,0-27.2509765625,7.6298828125-30.95703125,24.634765625Z"/>
  <path d="m1182.6171527401,63.0283203125v164.3740234375h-30.083984375V63.0283203125h30.083984375Z"/>
  <path d="m1399.7431293026,209.9619140625c-16.568359375,14.3876953125-39.6767578125,20.4921875-66.2724609375,20.4921875-50.576171875,0-82.1875-30.73828125-82.1875-79.7890625,0-49.2685546875,31.611328125-80.0068359375,81.7509765625-80.0068359375,26.3779296875,0,46.4345703125,8.501953125,61.2587890625,22.0185546875l-19.40234375,21.58203125c-10.24609375-9.15625-25.2880859375-14.82421875-41.8564453125-14.82421875-30.73828125,0-50.1396484375,19.6201171875-50.1396484375,51.23046875,0,32.482421875,20.4921875,51.6669921875,52.3203125,51.6669921875,13.951171875,0,26.814453125-2.3984375,36.6240234375-9.15625v-22.0185546875h-42.2919921875v-25.505859375h70.1962890625v64.310546875Z"/>
  <path d="m1451.4052386776,109.0263671875v16.787109375c7.8486328125-11.5546875,20.0556640625-18.7490234375,36.1884765625-19.40234375,2.6162109375,0,5.66796875,0,8.06640625.8720703125v32.91796875c-5.232421875-1.5263671875-10.0283203125-2.1796875-14.169921875-2.1796875-21.80078125,0-30.0849609375,16.349609375-30.0849609375,32.0458984375v57.3349609375h-29.8662109375v-118.3759765625h29.8662109375Z"/>
  <path d="m1627.1161761776,177.26171875h-91.560546875c3.2705078125,17.658203125,15.4775390625,27.4677734375,34.8798828125,27.4677734375,13.734375,0,25.9423828125-5.2314453125,34.0087890625-15.0419921875l18.748046875,15.9140625c-10.681640625,14.82421875-27.904296875,24.1982421875-54.9365234375,24.1982421875-39.458984375,0-62.78515625-24.1982421875-62.78515625-61.6943359375s25.0703125-61.6943359375,61.2587890625-61.6943359375c40.548828125,0,60.6044921875,25.7236328125,60.6044921875,62.1298828125,0,2.8349609375-.2177734375,8.720703125-.2177734375,8.720703125Zm-91.3427734375-21.58203125h62.3486328125c-1.744140625-12.8623046875-11.1181640625-24.634765625-31.392578125-24.634765625-15.0419921875,0-27.25,7.6298828125-30.9560546875,24.634765625Z"/>
  <path d="m1764.8896136776,177.26171875h-91.560546875c3.26953125,17.658203125,15.4775390625,27.4677734375,34.8798828125,27.4677734375,13.734375,0,25.9423828125-5.2314453125,34.0087890625-15.0419921875l18.748046875,15.9140625c-10.681640625,14.82421875-27.904296875,24.1982421875-54.9365234375,24.1982421875-39.4580078125,0-62.78515625-24.1982421875-62.78515625-61.6943359375s25.0703125-61.6943359375,61.2587890625-61.6943359375c40.548828125,0,60.6044921875,25.7236328125,60.6044921875,62.1298828125,0,2.8349609375-.2177734375,8.720703125-.2177734375,8.720703125Zm-91.3427734375-21.58203125h62.3486328125c-1.744140625-12.8623046875-11.1181640625-24.634765625-31.392578125-24.634765625-15.0419921875,0-27.25,7.6298828125-30.9560546875,24.634765625Z"/>
  <path d="m1816.3339496151,109.0263671875v8.720703125c11.1181640625-6.5400390625,27.46875-11.3359375,41.203125-11.3359375,30.9560546875,0,41.8564453125,13.2978515625,41.8564453125,50.140625v70.8505859375h-29.6484375v-66.2734375c0-20.927734375-6.9765625-27.904296875-23.1083984375-27.904296875-11.990234375,0-22.0185546875,4.142578125-29.2119140625,9.375v84.802734375h-29.8671875v-118.3759765625h28.7763671875Z"/>
  <path d="m621.8051410213,336.0322265625h-6.4794921875l-28.3491210938-64.0771484375h13.859375l17.7294921875,42.658203125,17.5493164062-42.658203125h14.1293945312l-28.4389648438,64.0771484375Z"/>
  <path d="m707.8442035213,271.955078125v10.9794921875h-33.8383789062v16.2890625h28.2587890625v10.619140625h-28.2587890625v14.580078125h35.728515625v10.9794921875h-48.23828125v-63.447265625h46.3481445312Z"/>
  <path d="m737.3647113338,271.955078125v63.447265625h-12.9594726562v-63.447265625h12.9594726562Zm13.4096679688-18.8095703125l-17.9990234375,14.759765625h-6.9301757812l11.0698242188-15.83984375,13.859375,1.080078125Z"/>
  <path d="m752.5756488338,303.54296875c0-20.4287109375,12.599609375-32.8486328125,33.1186523438-32.8486328125,12.599609375,0,21.6889648438,4.7705078125,27.8090820312,12.240234375l-9.8095703125,8.369140625c-3.6899414062-5.1298828125-9.5395507812-8.4599609375-17.6396484375-8.4599609375-12.5092773438,0-20.2490234375,7.650390625-20.2490234375,20.69921875,0,12.9599609375,7.7397460938,21.1494140625,20.2490234375,21.1494140625,8.1000976562,0,13.9497070312-3.330078125,17.6396484375-8.4599609375l9.8095703125,8.3701171875c-6.1201171875,7.3798828125-14.759765625,12.0595703125-27.8090820312,12.0595703125-20.5190429688,0-33.1186523438-12.689453125-33.1186523438-33.119140625Z"/>
  <path d="m825.4755511776,310.3828125v-38.427734375h12.689453125v35.3681640625c0,12.2392578125,4.58984375,17.279296875,14.6694335938,17.279296875s14.7592773438-5.0400390625,14.7592773438-17.279296875v-35.3681640625h12.689453125v38.427734375c0,17.369140625-9.1796875,26.279296875-27.4487304688,26.279296875-17.9091796875,0-27.3588867188-8.91015625-27.3588867188-26.279296875Z"/>
  <path d="m909.3539691463,271.955078125v52.017578125h33.6586914062v11.4296875h-46.4384765625v-63.447265625h12.7797851562Z"/>
  <path d="m951.2045550838,303.7236328125c0-19.349609375,12.9594726562-33.029296875,33.6586914062-33.029296875,19.978515625,0,33.748046875,13.1396484375,33.748046875,33.029296875,0,19.2587890625-13.048828125,32.9384765625-33.748046875,32.9384765625-19.978515625,0-33.6586914062-13.0498046875-33.6586914062-32.9384765625Zm54.1782226562,0c0-12.330078125-7.919921875-21.1494140625-20.51953125-21.1494140625-11.9697265625,0-20.4296875,8.279296875-20.4296875,21.1494140625,0,12.2392578125,7.919921875,21.05859375,20.4296875,21.05859375,12.0595703125,0,20.51953125-8.279296875,20.51953125-21.05859375Z"/>
  <path d="m1029.1444964901,330.8125l4.76953125-10.9794921875c7.109375,3.419921875,14.1298828125,5.4892578125,21.689453125,5.4892578125,7.109375,0,11.25-2.51953125,11.25-7.5595703125-.08984375-4.94921875-4.58984375-6.5693359375-13.41015625-8.279296875-13.94921875-2.7900390625-23.3984375-7.01953125-23.3984375-19.529296875,0-11.51953125,7.919921875-19.259765625,23.8486328125-19.259765625,9.6298828125,0,17.6396484375,1.98046875,23.8486328125,4.9501953125l-5.21875,10.619140625c-5.310546875-2.2490234375-11.7001953125-4.0498046875-18.6298828125-4.0498046875-7.2001953125,0-10.7998046875,2.970703125-10.7998046875,6.9296875,0,5.0400390625,5.759765625,6.75,15.4794921875,8.73046875,12.509765625,2.51953125,21.5087890625,6.4794921875,21.5087890625,18.9892578125,0,13.048828125-8.189453125,19.798828125-23.8486328125,19.798828125-11.1591796875,0-18.359375-1.8896484375-27.0888671875-5.849609375Z"/>
  <path d="m1113.5624652401,330.8125l4.7705078125-10.9794921875c7.109375,3.419921875,14.1298828125,5.4892578125,21.6884765625,5.4892578125,7.1103515625,0,11.25-2.51953125,11.25-7.5595703125-.08984375-4.94921875-4.58984375-6.5693359375-13.41015625-8.279296875-13.94921875-2.7900390625-23.3984375-7.01953125-23.3984375-19.529296875,0-11.51953125,7.919921875-19.259765625,23.849609375-19.259765625,9.62890625,0,17.638671875,1.98046875,23.8486328125,4.9501953125l-5.2197265625,10.619140625c-5.310546875-2.2490234375-11.69921875-4.0498046875-18.62890625-4.0498046875-7.2001953125,0-10.80078125,2.970703125-10.80078125,6.9296875,0,5.0400390625,5.759765625,6.75,15.48046875,8.73046875,12.509765625,2.51953125,21.5087890625,6.4794921875,21.5087890625,18.9892578125,0,13.048828125-8.1904296875,19.798828125-23.8486328125,19.798828125-11.16015625,0-18.359375-1.8896484375-27.08984375-5.849609375Z"/>
  <path d="m1177.0126605526,310.3828125v-38.427734375h12.689453125v35.3681640625c0,12.2392578125,4.58984375,17.279296875,14.6689453125,17.279296875,10.080078125,0,14.759765625-5.0400390625,14.759765625-17.279296875v-35.3681640625h12.689453125v38.427734375c0,17.369140625-9.1796875,26.279296875-27.44921875,26.279296875-17.908203125,0-27.3583984375-8.91015625-27.3583984375-26.279296875Z"/>
  <path d="m1244.8710589901,330.8125l4.7705078125-10.9794921875c7.109375,3.419921875,14.1298828125,5.4892578125,21.6884765625,5.4892578125,7.1103515625,0,11.25-2.51953125,11.25-7.5595703125-.08984375-4.94921875-4.58984375-6.5693359375-13.41015625-8.279296875-13.94921875-2.7900390625-23.3984375-7.01953125-23.3984375-19.529296875,0-11.51953125,7.919921875-19.259765625,23.849609375-19.259765625,9.62890625,0,17.638671875,1.98046875,23.8486328125,4.9501953125l-5.2197265625,10.619140625c-5.310546875-2.2490234375-11.69921875-4.0498046875-18.62890625-4.0498046875-7.2001953125,0-10.80078125,2.970703125-10.80078125,6.9296875,0,5.0400390625,5.759765625,6.75,15.48046875,8.73046875,12.509765625,2.51953125,21.5087890625,6.4794921875,21.5087890625,18.9892578125,0,13.048828125-8.1904296875,19.798828125-23.8486328125,19.798828125-11.16015625,0-18.359375-1.8896484375-27.08984375-5.849609375Z"/>
  <path d="m1304.1816058651,283.0244140625v-11.0693359375h53.3671875v11.0693359375h-20.2490234375v52.3779296875h-12.869140625v-52.3779296875h-20.2490234375Z"/>
  <path d="m1416.9491839901,271.955078125v10.9794921875h-33.8388671875v16.2890625h28.2587890625v10.619140625h-28.2587890625v14.580078125h35.728515625v10.9794921875h-48.23828125v-63.447265625h46.3486328125Z"/>
  <path d="m1489.8476214901,335.40234375h-6.2998046875l-38.068359375-39.3291015625v39.3291015625h-12.599609375v-63.447265625h6.2099609375l38.158203125,39.328125v-39.328125h12.599609375v63.447265625Z"/>
  <path d="m1502.8095355526,283.0244140625v-11.0693359375h53.3671875v11.0693359375h-20.2490234375v52.3779296875h-12.869140625v-52.3779296875h-20.2490234375Z"/>
  <path d="m1572.8290668026,323.3427734375l-5.400390625,12.0595703125h-13.5888671875l29.96875-63.5380859375h6.9296875l30.05859375,63.5380859375h-13.6796875l-5.3994140625-12.0595703125h-28.888671875Zm24.7490234375-10.349609375l-10.349609375-24.029296875-10.259765625,24.029296875h20.609375Zm9.62890625-59.84765625l-17.9990234375,14.759765625h-6.9296875l11.0693359375-15.83984375,13.859375,1.080078125Z"/>
  <path d="m1651.4892230526,336.0322265625h-6.4794921875l-28.3486328125-64.0771484375h13.859375l17.728515625,42.658203125,17.5498046875-42.658203125h14.12890625l-28.4384765625,64.0771484375Z"/>
  <path d="m1737.5282855526,271.955078125v10.9794921875h-33.8388671875v16.2890625h28.2587890625v10.619140625h-28.2587890625v14.580078125h35.728515625v10.9794921875h-48.2373046875v-63.447265625h46.34765625Z"/>
  <path d="m1767.0487933651,271.955078125v63.447265625h-12.958984375v-63.447265625h12.958984375Z"/>
  <path d="m1781.3593402401,330.8125l4.76953125-10.9794921875c7.1103515625,3.419921875,14.1298828125,5.4892578125,21.689453125,5.4892578125,7.109375,0,11.2490234375-2.51953125,11.2490234375-7.5595703125-.08984375-4.94921875-4.5888671875-6.5693359375-13.4091796875-8.279296875-13.94921875-2.7900390625-23.3984375-7.01953125-23.3984375-19.529296875,0-11.51953125,7.9189453125-19.259765625,23.8486328125-19.259765625,9.6298828125,0,17.6396484375,1.98046875,23.8486328125,4.9501953125l-5.2197265625,10.619140625c-5.3095703125-2.2490234375-11.69921875-4.0498046875-18.62890625-4.0498046875-7.2001953125,0-10.7998046875,2.970703125-10.7998046875,6.9296875,0,5.0400390625,5.759765625,6.75,15.4794921875,8.73046875,12.509765625,2.51953125,21.5087890625,6.4794921875,21.5087890625,18.9892578125,0,13.048828125-8.189453125,19.798828125-23.8486328125,19.798828125-11.1591796875,0-18.359375-1.8896484375-27.0888671875-5.849609375Z"/>
  <g>
    <path d="m327.1281239607,330.9518844945c-11.8407627516,9.0398064527-22.0950722728,31.3617695466-39.4250550457,24.6566867551-10.5275488759-4.2757142151-13.2058611666-18.6655657533-4.9222491007-27.0748793389,28.2420496434-29.8979217212,60.1802508684-57.1990926991,86.8194592164-88.1719112618-29.7360847475,3.6909444119-56.7093277187,20.6991929164-81.1936929099,37.6362130749-40.9794881943-110.9725227632,109.4770928109-127.9153863423,185.9082529179-127.7440855391,7.7077778743-.1014692058,10.2164549833,2.4850962755,10.1514543735,10.2948858185,2.1914452831,96.587970378-30.3656222123,250.4489193214-157.3381694516,170.4030904912Z"/>
    <path d="m56.0182158201,181.4222310954c-30.2627769522,3.0778455404-37.2787335005-13.1395009551-35.0220778779-40.1530212556,1.9398113886-29.6984880977,39.3019062191-28.6640278677,57.9976282517-12.0432825132C115.4299102978,47.8952739418,114.7690052742,26.4694120588,211.2851034363,21.5929426914c40.976974414-1.9966570973,82.6405892949-2.1085509421,123.0013226673,6.2595476676,47.1062720019,7.6709887838,59.8163913899,56.9997615568,77.4637398969,94.3537687679-99.9029239828,8.6475253892-197.2581111157,63.5152419619-148.639523705,176.7889399452.8699818797,2.6723188385.8145991722,4.3862720916-1.3173159874,6.5071151341-8.2811961947,8.2381640601-13.4215091397,18.13729785-14.3424118875,29.9054891505-.2651532586,3.3884874932-2.4163953878,2.7852536937-4.4547297257,2.7853902492-42.8351063312.0025045476-85.559337899-.0017685531-128.4082259157-.0041421827,3.8541105426,46.7867346983-18.7850749957,41.2263192024-55.3972706249,41.0540583155-13.0695641772-.009949743-23.4245406936-12.1954961028-22.5666669721-25.0133135909.0047543411-38.5309758511-.040264051-77.0623328072.0803471786-115.5931663006-.0153261058-21.1853338296,7.2247198935-39.9361470047,19.3138474594-57.2143987516Zm80.6227838027,73.6076328668c7.0899738095-.0521486717,14.1873861508.1093168726,21.2736721363-.0308152414,20.8497582312.3481624195,25.6885809318-30.2115203685,4.822632461-35.4707358487-25.4812466524-4.8948987138-69.8007509352-30.1837900146-65.4580286155,16.3715903312-.2233884564,22.2199854065,23.5620831999,19.3932715708,39.3617240182,19.1299607589Z"/>
  </g>
</svg>