<?xml version="1.0" encoding="UTF-8"?>
<svg id="e" data-name="Ardboard 4" xmlns="http://www.w3.org/2000/svg" viewBox="0 0 1920 1920" fill="currentColor">
  <path d="m1212.2814931052,1379.2709463275c-23.7104104904,23.9352638694-47.0342679852,47.8737290495-70.8056562844,71.3484726484-17.9458463192,17.7220661752-39.2869987826,22.8750834299-62.7182235331,13.2372639892-35.650637326-14.6641897169-44.7212793539-64.0318377786-16.6671648247-92.8818945308,95.6486448456-102.572908151,203.8069561717-196.2288315951,294.0315206518-302.4937312626-100.7173490104,12.6661434369-192.0555450452,71.0131491177-274.978734135,129.1195615554-138.7858841807-380.7154333014,370.7664860716-438.8431556375,629.615605194-438.255046223,26.103935911-.3481135211,34.6000743555,8.5256857694,34.379936747,35.318939374,7.4218258036,331.3679120755-102.839776153,859.221523347-532.8572838156,584.6064344494Z"/>
  <path d="m294.1133857042,866.2755700927c-101.8685315661,10.3587065819-126.6739884287-44.9093608-118.608525473-137.753056952,6.5690574008-101.8889084947,133.1035378893-98.33904502,196.4198373055-41.318196684,124.4488020501-280.1821796775,119.7964638797-351.7657354752,448.0306957134-369.260027742,360.7712020868-1.8659668601,546.2199657139-51.8303239399,678.9156262838,345.1774645355-339.9343111913,31.1773827894-667.0638314373,215.4627541491-503.3992394116,606.513521309,11.6147175539,25.4996488841-49.5901090523,46.9074629941-53.0296188397,124.9244927154-.9015217874,11.62319348-8.1871349463,9.5536631701-15.0903632131,9.5541316546-145.0694179221.0085924178-289.7642405034-.0060674216-434.8802246749-.0142106967,10.3857393202,164.6951859265-60.3136909668,139.4292076077-187.6117112826,140.8479734718-44.2649684998-.0369784475-79.3341633479-41.8419538513-76.4288083553-85.8165615798,15.9304463894-190.7350718781-48.5285535562-430.7693565875,65.6823319475-592.8555300319Zm273.0452358796,252.5276723239c24.0116183345-.1789078647,48.0484299182.375036363,72.0475596498-.1057186717,70.6118901764,1.1944501127,86.9995342558-103.6474699552,16.3328126006-121.6904009901-48.6376994244-13.6713288835-97.4734371308-26.7163580633-146.5256460584-38.783894319-59.866871132-13.1748158414-82.4508147961,43.7759252919-75.1590304107,94.9512870263.8221854997,78.0822843615,78.3310604187,65.5948609308,133.3043042187,65.6287269546Z"/>
</svg>